<?xml version="1.0" encoding="iso-8859-1"?>
<!-- Generator: Adobe Illustrator 19.0.0, SVG Export Plug-In . SVG Version: 6.00 Build 0)  -->
<svg version="1.1" id="Layer_1" xmlns="http://www.w3.org/2000/svg" xmlns:xlink="http://www.w3.org/1999/xlink" x="0px" y="0px"
	 viewBox="0 0 512.013 512.013" style="enable-background:new 0 0 512.013 512.013;" xml:space="preserve">
<g>
	<g>
		<g>
			<path d="M127.997,319.994c-29.035,0-56.192,11.52-76.48,32.448L28.519,372.9c4.971,9.621,10.411,18.944,16.512,27.797
				l6.827-12.011c13.419-28.224,43.584-47.36,76.139-47.36c47.061,0,85.333,38.272,85.333,85.333
				c0,24.128-10.496,47.296-28.779,63.595l-9.472,8.427c8.491,2.837,17.173,5.291,26.048,7.253l20.139-27.648
				c8.768-15.829,13.397-33.664,13.397-51.627C234.663,367.866,186.813,319.994,127.997,319.994z"/>
			<path d="M127.999,384.009c-16.448,0-31.147,9.344-38.357,24.405L74.09,435.849c17.067,17.28,36.587,32.107,57.984,43.989
				l24.107-21.461c9.344-8.32,14.485-19.584,14.485-31.701C170.666,403.145,151.53,384.009,127.999,384.009z"/>
			<path d="M98.83,97.301c15.253,12.907,25.024,33.621,24.363,51.563l-0.725,19.883l3.179,1.173l12.224-15.723
				c9.728-12.48,24.363-19.648,40.171-19.648c15.808,0,30.443,7.168,40.171,19.648l12.224,15.723l3.2-1.173l-0.747-19.883
				c-0.576-15.808,6.016-30.699,18.133-40.853c12.117-10.155,27.947-14.101,43.392-10.773l19.477,4.181c0,0,1.707-2.944,1.685-2.965
				l-13.355-14.784c-17.472-19.307-17.451-48.555,0.064-68.011l8.683-9.557C293.241,2.197,274.873,0,255.993,0
				c-75.52,0-143.296,33.067-190.208,85.269C77.134,84.736,88.675,88.683,98.83,97.301z"/>
			<path d="M411.018,365.815l-17.109,17.109c-4.16,4.16-9.621,6.251-15.083,6.251c-5.461,0-10.923-2.091-15.083-6.251
				c-8.341-8.341-8.341-21.845,0-30.165l16.768-16.768c-7.467-11.179-12.864-23.765-15.637-37.312h-23.531
				c-11.797,0-21.333-9.557-21.333-21.333c0-11.797,9.536-21.333,21.333-21.333h23.488c2.773-13.611,8.192-26.219,15.616-37.397
				l-16.704-16.704c-8.341-8.32-8.341-21.824,0-30.165c8.341-8.32,21.824-8.32,30.165,0l16.683,16.704
				c16.875-11.179,37.035-17.771,58.752-17.771c0.469,0,11.2,0.021,27.755,0.064c-24.043-67.733-75.563-122.56-141.355-150.507
				L333.94,44.258c-2.347,2.624-3.2,7.317-0.064,10.816l13.376,14.805c13.184,14.571,15.339,34.987,5.525,51.989
				c-9.835,17.045-28.608,25.429-47.851,21.248l-19.477-4.181c-3.371-0.661-5.845,0.789-6.997,1.749
				c-1.152,0.96-3.051,3.115-2.923,6.592l0.747,19.883c0.725,19.669-10.773,36.736-29.248,43.456
				c-18.432,6.699-38.208,1.024-50.283-14.507l-12.224-15.701c-2.133-2.773-4.971-3.2-6.485-3.2c-1.493,0-4.331,0.427-6.485,3.2
				l-12.224,15.723c-8.683,11.179-21.376,17.259-34.709,17.259c-5.163,0-10.389-0.917-15.552-2.773
				c-18.496-6.72-29.973-23.787-29.248-43.456l0.747-19.883c0.277-7.467-8.725-18.944-12.992-19.669
				c-1.408,0.299-2.133,0.405-3.563,0.405H34.634c-21.888,37.696-34.624,81.344-34.624,128c0,26.155,3.968,51.371,11.307,75.157
				l10.709-9.515c22.421-23.189,52.181-38.037,84.651-42.645v-22.997c0-11.797,9.536-21.333,21.333-21.333
				c11.776,0,21.333,9.536,21.333,21.333v23.019c25.216,3.648,48.384,13.568,67.925,28.203l16.32-16.341
				c8.341-8.32,21.845-8.32,30.165,0c8.341,8.32,8.341,21.845,0.021,30.165l-16.341,16.363
				c14.635,19.52,24.555,42.688,28.203,67.925h23.04c11.776,0,21.333,9.536,21.333,21.333c0,11.776-9.557,21.333-21.333,21.333
				h-23.019c-2.667,18.304-8.619,36.117-17.856,52.373c-0.384,0.683-0.832,1.365-1.301,2.005l-6.784,9.301
				c2.112,0.043,4.16,0.32,6.293,0.32c94.677,0,177.344-51.819,221.632-128.448h-12.587
				C444.916,382.562,426.591,375.992,411.018,365.815z"/>
			<path d="M508.163,213.442c-21.227-0.064-36.224-0.107-38.827-0.107c-35.285,0-64,28.715-64,64
				c0,33.941,26.688,61.867,60.8,63.573h31.083c9.408-26.624,14.784-55.104,14.784-84.907
				C512.003,241.474,510.51,227.309,508.163,213.442z"/>
		</g>
	</g>
</g>
<g>
</g>
<g>
</g>
<g>
</g>
<g>
</g>
<g>
</g>
<g>
</g>
<g>
</g>
<g>
</g>
<g>
</g>
<g>
</g>
<g>
</g>
<g>
</g>
<g>
</g>
<g>
</g>
<g>
</g>
</svg>
